<svg xmlns="http://www.w3.org/2000/svg" xmlns:xlink="http://www.w3.org/1999/xlink" width="500" zoomAndPan="magnify" viewBox="0 0 375 374.999991" height="500" preserveAspectRatio="xMidYMid meet" version="1.0"><defs><g/><clipPath id="223883c88a"><path d="M 68.59375 168.355469 L 106.84375 168.355469 L 106.84375 206.605469 L 68.59375 206.605469 Z M 68.59375 168.355469 " clip-rule="nonzero"/></clipPath></defs><rect x="-37.5" width="450" fill="#ffffff" y="-37.499999" height="449.999989" fill-opacity="1"/><rect x="-37.5" width="450" fill="#ffffff" y="-37.499999" height="449.999989" fill-opacity="1"/><rect x="-37.5" width="450" fill="#8c52ff" y="-37.499999" height="449.999989" fill-opacity="1"/><g clip-path="url(#223883c88a)"><path fill="#ffffff" d="M 76.226562 199.722656 L 76.660156 200.152344 L 76.703125 200.195312 C 78.050781 201.589844 78.035156 203.839844 76.660156 205.214844 C 75.285156 206.59375 73.039062 206.605469 71.644531 205.257812 L 71.597656 205.214844 L 71.167969 204.785156 L 69.988281 203.601562 C 68.597656 202.210938 68.597656 199.933594 69.988281 198.539062 C 71.378906 197.144531 73.660156 197.144531 75.050781 198.539062 Z M 100.101562 180.128906 L 100.519531 179.707031 L 105.414062 174.8125 C 106.804688 173.421875 106.804688 171.144531 105.414062 169.746094 C 104.019531 168.355469 101.742188 168.355469 100.351562 169.746094 L 95.941406 174.164062 L 95.460938 174.644531 L 95.039062 175.0625 L 92.507812 177.59375 C 91.121094 178.988281 91.121094 181.265625 92.507812 182.660156 L 95.039062 185.191406 L 95.492188 185.640625 L 100.386719 190.535156 C 101.777344 191.925781 104.050781 191.925781 105.449219 190.535156 C 106.839844 189.144531 106.839844 186.863281 105.449219 185.472656 L 100.554688 180.574219 Z M 70.191406 169.78125 L 70.191406 169.777344 C 71.582031 168.386719 73.859375 168.386719 75.25 169.777344 L 105.378906 199.929688 C 106.777344 201.320312 106.777344 203.601562 105.378906 204.992188 C 103.988281 206.386719 101.714844 206.386719 100.320312 204.992188 L 70.191406 174.839844 C 68.800781 173.449219 68.800781 171.171875 70.191406 169.78125 Z M 70.144531 184.214844 C 71.535156 182.824219 73.8125 182.824219 75.207031 184.214844 L 78.636719 187.648438 L 86.0625 195.078125 L 90.957031 199.972656 C 92.347656 201.363281 92.347656 203.644531 90.957031 205.035156 C 89.558594 206.429688 87.285156 206.429688 85.894531 205.035156 L 81 200.140625 L 73.578125 192.710938 L 70.144531 189.28125 C 68.753906 187.886719 68.753906 185.605469 70.144531 184.214844 Z M 70.144531 184.214844 " fill-opacity="1" fill-rule="evenodd"/></g><g fill="#ffffff" fill-opacity="1"><g transform="translate(124.213313, 195.374987)"><g><path d="M 0.609375 0 L 7.453125 -18.6875 L 11.28125 -18.6875 L 18.125 0 L 14.484375 0 L 13 -4.328125 L 5.71875 -4.328125 L 4.1875 0 Z M 6.640625 -6.984375 L 12.0625 -6.984375 L 9.34375 -14.765625 Z M 6.640625 -6.984375 "/></g></g></g><g fill="#ffffff" fill-opacity="1"><g transform="translate(147.056009, 195.374987)"><g><path d="M 1.8125 0 L 1.8125 -18.6875 L 8.734375 -18.6875 C 10.222656 -18.6875 11.457031 -18.4375 12.4375 -17.9375 C 13.414062 -17.4375 14.144531 -16.75 14.625 -15.875 C 15.101562 -15.007812 15.34375 -14.03125 15.34375 -12.9375 C 15.34375 -11.90625 15.109375 -10.957031 14.640625 -10.09375 C 14.179688 -9.238281 13.460938 -8.546875 12.484375 -8.015625 C 11.503906 -7.492188 10.253906 -7.234375 8.734375 -7.234375 L 5.234375 -7.234375 L 5.234375 0 Z M 5.234375 -10 L 8.515625 -10 C 9.703125 -10 10.554688 -10.257812 11.078125 -10.78125 C 11.609375 -11.3125 11.875 -12.03125 11.875 -12.9375 C 11.875 -13.863281 11.609375 -14.585938 11.078125 -15.109375 C 10.554688 -15.640625 9.703125 -15.90625 8.515625 -15.90625 L 5.234375 -15.90625 Z M 5.234375 -10 "/></g></g></g><g fill="#ffffff" fill-opacity="1"><g transform="translate(167.390457, 195.374987)"><g><path d="M 1.8125 0 L 1.8125 -18.6875 L 5.234375 -18.6875 L 5.234375 0 Z M 1.8125 0 "/></g></g></g><g fill="#ffffff" fill-opacity="1"><g transform="translate(178.572459, 195.374987)"><g/></g></g><g fill="#ffffff" fill-opacity="1"><g transform="translate(189.060688, 195.374987)"><g><path d="M 1.8125 0 L 1.8125 -18.6875 L 8.734375 -18.6875 C 10.222656 -18.6875 11.457031 -18.4375 12.4375 -17.9375 C 13.414062 -17.4375 14.144531 -16.75 14.625 -15.875 C 15.101562 -15.007812 15.34375 -14.03125 15.34375 -12.9375 C 15.34375 -11.90625 15.109375 -10.957031 14.640625 -10.09375 C 14.179688 -9.238281 13.460938 -8.546875 12.484375 -8.015625 C 11.503906 -7.492188 10.253906 -7.234375 8.734375 -7.234375 L 5.234375 -7.234375 L 5.234375 0 Z M 5.234375 -10 L 8.515625 -10 C 9.703125 -10 10.554688 -10.257812 11.078125 -10.78125 C 11.609375 -11.3125 11.875 -12.03125 11.875 -12.9375 C 11.875 -13.863281 11.609375 -14.585938 11.078125 -15.109375 C 10.554688 -15.640625 9.703125 -15.90625 8.515625 -15.90625 L 5.234375 -15.90625 Z M 5.234375 -10 "/></g></g></g><g fill="#ffffff" fill-opacity="1"><g transform="translate(209.395138, 195.374987)"><g><path d="M 0.609375 0 L 7.453125 -18.6875 L 11.28125 -18.6875 L 18.125 0 L 14.484375 0 L 13 -4.328125 L 5.71875 -4.328125 L 4.1875 0 Z M 6.640625 -6.984375 L 12.0625 -6.984375 L 9.34375 -14.765625 Z M 6.640625 -6.984375 "/></g></g></g><g fill="#ffffff" fill-opacity="1"><g transform="translate(232.237829, 195.374987)"><g><path d="M 8.1875 0.3125 C 6.820312 0.3125 5.613281 0.078125 4.5625 -0.390625 C 3.507812 -0.859375 2.679688 -1.53125 2.078125 -2.40625 C 1.472656 -3.289062 1.160156 -4.363281 1.140625 -5.625 L 4.75 -5.625 C 4.78125 -4.757812 5.09375 -4.023438 5.6875 -3.421875 C 6.289062 -2.828125 7.117188 -2.53125 8.171875 -2.53125 C 9.078125 -2.53125 9.796875 -2.75 10.328125 -3.1875 C 10.859375 -3.625 11.125 -4.207031 11.125 -4.9375 C 11.125 -5.695312 10.890625 -6.289062 10.421875 -6.71875 C 9.953125 -7.144531 9.320312 -7.492188 8.53125 -7.765625 C 7.75 -8.035156 6.914062 -8.320312 6.03125 -8.625 C 4.59375 -9.125 3.492188 -9.765625 2.734375 -10.546875 C 1.972656 -11.328125 1.59375 -12.363281 1.59375 -13.65625 C 1.582031 -14.757812 1.847656 -15.707031 2.390625 -16.5 C 2.929688 -17.289062 3.671875 -17.90625 4.609375 -18.34375 C 5.554688 -18.78125 6.644531 -19 7.875 -19 C 9.113281 -19 10.207031 -18.773438 11.15625 -18.328125 C 12.113281 -17.890625 12.863281 -17.269531 13.40625 -16.46875 C 13.945312 -15.664062 14.238281 -14.710938 14.28125 -13.609375 L 10.625 -13.609375 C 10.601562 -14.265625 10.347656 -14.847656 9.859375 -15.359375 C 9.367188 -15.867188 8.6875 -16.125 7.8125 -16.125 C 7.070312 -16.132812 6.445312 -15.945312 5.9375 -15.5625 C 5.425781 -15.1875 5.171875 -14.632812 5.171875 -13.90625 C 5.171875 -13.28125 5.367188 -12.785156 5.765625 -12.421875 C 6.160156 -12.054688 6.691406 -11.75 7.359375 -11.5 C 8.035156 -11.25 8.8125 -10.984375 9.6875 -10.703125 C 10.613281 -10.378906 11.457031 -10.003906 12.21875 -9.578125 C 12.988281 -9.148438 13.601562 -8.582031 14.0625 -7.875 C 14.53125 -7.175781 14.765625 -6.273438 14.765625 -5.171875 C 14.765625 -4.191406 14.515625 -3.285156 14.015625 -2.453125 C 13.515625 -1.617188 12.773438 -0.945312 11.796875 -0.4375 C 10.816406 0.0625 9.613281 0.3125 8.1875 0.3125 Z M 8.1875 0.3125 "/></g></g></g><g fill="#ffffff" fill-opacity="1"><g transform="translate(252.305432, 195.374987)"><g><path d="M 8.1875 0.3125 C 6.820312 0.3125 5.613281 0.078125 4.5625 -0.390625 C 3.507812 -0.859375 2.679688 -1.53125 2.078125 -2.40625 C 1.472656 -3.289062 1.160156 -4.363281 1.140625 -5.625 L 4.75 -5.625 C 4.78125 -4.757812 5.09375 -4.023438 5.6875 -3.421875 C 6.289062 -2.828125 7.117188 -2.53125 8.171875 -2.53125 C 9.078125 -2.53125 9.796875 -2.75 10.328125 -3.1875 C 10.859375 -3.625 11.125 -4.207031 11.125 -4.9375 C 11.125 -5.695312 10.890625 -6.289062 10.421875 -6.71875 C 9.953125 -7.144531 9.320312 -7.492188 8.53125 -7.765625 C 7.75 -8.035156 6.914062 -8.320312 6.03125 -8.625 C 4.59375 -9.125 3.492188 -9.765625 2.734375 -10.546875 C 1.972656 -11.328125 1.59375 -12.363281 1.59375 -13.65625 C 1.582031 -14.757812 1.847656 -15.707031 2.390625 -16.5 C 2.929688 -17.289062 3.671875 -17.90625 4.609375 -18.34375 C 5.554688 -18.78125 6.644531 -19 7.875 -19 C 9.113281 -19 10.207031 -18.773438 11.15625 -18.328125 C 12.113281 -17.890625 12.863281 -17.269531 13.40625 -16.46875 C 13.945312 -15.664062 14.238281 -14.710938 14.28125 -13.609375 L 10.625 -13.609375 C 10.601562 -14.265625 10.347656 -14.847656 9.859375 -15.359375 C 9.367188 -15.867188 8.6875 -16.125 7.8125 -16.125 C 7.070312 -16.132812 6.445312 -15.945312 5.9375 -15.5625 C 5.425781 -15.1875 5.171875 -14.632812 5.171875 -13.90625 C 5.171875 -13.28125 5.367188 -12.785156 5.765625 -12.421875 C 6.160156 -12.054688 6.691406 -11.75 7.359375 -11.5 C 8.035156 -11.25 8.8125 -10.984375 9.6875 -10.703125 C 10.613281 -10.378906 11.457031 -10.003906 12.21875 -9.578125 C 12.988281 -9.148438 13.601562 -8.582031 14.0625 -7.875 C 14.53125 -7.175781 14.765625 -6.273438 14.765625 -5.171875 C 14.765625 -4.191406 14.515625 -3.285156 14.015625 -2.453125 C 13.515625 -1.617188 12.773438 -0.945312 11.796875 -0.4375 C 10.816406 0.0625 9.613281 0.3125 8.1875 0.3125 Z M 8.1875 0.3125 "/></g></g></g><g fill="#ffffff" fill-opacity="1"><g transform="translate(272.373034, 195.374987)"><g><path d="M 0.609375 0 L 7.453125 -18.6875 L 11.28125 -18.6875 L 18.125 0 L 14.484375 0 L 13 -4.328125 L 5.71875 -4.328125 L 4.1875 0 Z M 6.640625 -6.984375 L 12.0625 -6.984375 L 9.34375 -14.765625 Z M 6.640625 -6.984375 "/></g></g></g><g fill="#ffffff" fill-opacity="1"><g transform="translate(295.215726, 195.374987)"><g><path d="M 9.984375 0.3125 C 8.222656 0.3125 6.679688 -0.0820312 5.359375 -0.875 C 4.046875 -1.675781 3.023438 -2.789062 2.296875 -4.21875 C 1.566406 -5.65625 1.203125 -7.328125 1.203125 -9.234375 C 1.203125 -11.148438 1.578125 -12.84375 2.328125 -14.3125 C 3.085938 -15.78125 4.164062 -16.925781 5.5625 -17.75 C 6.957031 -18.582031 8.617188 -19 10.546875 -19 C 12.734375 -19 14.546875 -18.472656 15.984375 -17.421875 C 17.421875 -16.378906 18.351562 -14.929688 18.78125 -13.078125 L 14.96875 -13.078125 C 14.6875 -13.953125 14.171875 -14.632812 13.421875 -15.125 C 12.671875 -15.613281 11.710938 -15.859375 10.546875 -15.859375 C 8.671875 -15.859375 7.226562 -15.265625 6.21875 -14.078125 C 5.207031 -12.890625 4.703125 -11.265625 4.703125 -9.203125 C 4.703125 -7.140625 5.203125 -5.539062 6.203125 -4.40625 C 7.210938 -3.28125 8.578125 -2.71875 10.296875 -2.71875 C 11.992188 -2.71875 13.269531 -3.175781 14.125 -4.09375 C 14.988281 -5.007812 15.507812 -6.21875 15.6875 -7.71875 L 10.96875 -7.71875 L 10.96875 -10.28125 L 19.140625 -10.28125 L 19.140625 0 L 15.984375 0 L 15.71875 -2.453125 C 15.113281 -1.566406 14.359375 -0.882812 13.453125 -0.40625 C 12.546875 0.0703125 11.390625 0.3125 9.984375 0.3125 Z M 9.984375 0.3125 "/></g></g></g><g fill="#ffffff" fill-opacity="1"><g transform="translate(319.97964, 195.374987)"><g><path d="M 1.8125 0 L 1.8125 -18.6875 L 14.015625 -18.6875 L 14.015625 -15.9375 L 5.234375 -15.9375 L 5.234375 -10.8125 L 13.203125 -10.8125 L 13.203125 -8.140625 L 5.234375 -8.140625 L 5.234375 -2.75 L 14.015625 -2.75 L 14.015625 0 Z M 1.8125 0 "/></g></g></g></svg>