<svg xmlns="http://www.w3.org/2000/svg" xmlns:xlink="http://www.w3.org/1999/xlink" width="500" zoomAndPan="magnify" viewBox="0 0 375 374.999991" height="500" preserveAspectRatio="xMidYMid meet" version="1.0"><defs><g/></defs><rect x="-37.5" width="450" fill="#ffffff" y="-37.499999" height="449.999989" fill-opacity="1"/><rect x="-37.5" width="450" fill="#8c52ff" y="-37.499999" height="449.999989" fill-opacity="1"/><path fill="#ffffff" d="M 143.964844 212.890625 L 145.613281 214.511719 L 145.777344 214.675781 C 150.902344 219.960938 150.847656 228.46875 145.613281 233.679688 C 140.375 238.886719 131.828125 238.941406 126.519531 233.84375 L 126.355469 233.679688 L 124.707031 232.054688 L 120.222656 227.574219 C 114.929688 222.308594 114.929688 213.691406 120.222656 208.410156 C 125.511719 203.144531 134.1875 203.144531 139.480469 208.410156 Z M 234.796875 138.738281 L 236.390625 137.152344 L 238.222656 135.332031 L 255.007812 118.625 C 260.300781 113.359375 260.300781 104.742188 255.007812 99.457031 C 249.699219 94.191406 241.042969 94.191406 235.75 99.457031 L 218.964844 116.164062 L 217.132812 117.988281 L 215.539062 119.574219 L 205.910156 129.15625 C 200.621094 134.421875 200.621094 143.039062 205.910156 148.320312 L 215.539062 157.90625 L 217.261719 159.597656 L 235.878906 178.128906 C 241.167969 183.394531 249.828125 183.394531 255.136719 178.128906 C 260.425781 172.863281 260.425781 164.226562 255.136719 158.960938 L 236.519531 140.433594 Z M 120.992188 99.585938 L 120.992188 99.566406 C 126.28125 94.300781 134.957031 94.300781 140.25 99.566406 L 254.878906 213.671875 C 260.1875 218.9375 260.1875 227.574219 254.878906 232.839844 C 249.589844 238.105469 240.929688 238.105469 235.621094 232.839844 L 120.992188 118.734375 C 115.699219 113.46875 115.699219 104.851562 120.992188 99.585938 Z M 120.824219 154.207031 C 126.117188 148.941406 134.773438 148.941406 140.082031 154.207031 L 153.136719 167.195312 L 181.382812 195.308594 L 200 213.835938 C 205.289062 219.101562 205.289062 227.738281 200 233.003906 C 194.691406 238.269531 186.03125 238.269531 180.742188 233.003906 L 162.125 214.476562 L 133.878906 186.363281 L 120.824219 173.375 C 115.535156 168.109375 115.535156 159.472656 120.824219 154.207031 Z M 120.824219 154.207031 " fill-opacity="1" fill-rule="evenodd"/><g fill="#ffffff" fill-opacity="1"><g transform="translate(89.831498, 273.535128)"><g><path d="M 0.5625 0 L 6.890625 -17.28125 L 10.4375 -17.28125 L 16.765625 0 L 13.40625 0 L 12.015625 -4 L 5.28125 -4 L 3.875 0 Z M 6.140625 -6.46875 L 11.15625 -6.46875 L 8.640625 -13.65625 Z M 6.140625 -6.46875 "/></g></g></g><g fill="#ffffff" fill-opacity="1"><g transform="translate(110.959349, 273.535128)"><g><path d="M 1.671875 0 L 1.671875 -17.28125 L 8.078125 -17.28125 C 9.453125 -17.28125 10.59375 -17.050781 11.5 -16.59375 C 12.40625 -16.132812 13.082031 -15.5 13.53125 -14.6875 C 13.976562 -13.882812 14.203125 -12.976562 14.203125 -11.96875 C 14.203125 -11.019531 13.984375 -10.144531 13.546875 -9.34375 C 13.117188 -8.539062 12.453125 -7.894531 11.546875 -7.40625 C 10.648438 -6.925781 9.492188 -6.6875 8.078125 -6.6875 L 4.84375 -6.6875 L 4.84375 0 Z M 4.84375 -9.265625 L 7.875 -9.265625 C 8.976562 -9.265625 9.769531 -9.503906 10.25 -9.984375 C 10.738281 -10.472656 10.984375 -11.132812 10.984375 -11.96875 C 10.984375 -12.820312 10.738281 -13.492188 10.25 -13.984375 C 9.769531 -14.472656 8.976562 -14.71875 7.875 -14.71875 L 4.84375 -14.71875 Z M 4.84375 -9.265625 "/></g></g></g><g fill="#ffffff" fill-opacity="1"><g transform="translate(129.767351, 273.535128)"><g><path d="M 1.671875 0 L 1.671875 -17.28125 L 4.84375 -17.28125 L 4.84375 0 Z M 1.671875 0 "/></g></g></g><g fill="#ffffff" fill-opacity="1"><g transform="translate(140.110364, 273.535128)"><g/></g></g><g fill="#ffffff" fill-opacity="1"><g transform="translate(149.811722, 273.535128)"><g><path d="M 1.671875 0 L 1.671875 -17.28125 L 8.078125 -17.28125 C 9.453125 -17.28125 10.59375 -17.050781 11.5 -16.59375 C 12.40625 -16.132812 13.082031 -15.5 13.53125 -14.6875 C 13.976562 -13.882812 14.203125 -12.976562 14.203125 -11.96875 C 14.203125 -11.019531 13.984375 -10.144531 13.546875 -9.34375 C 13.117188 -8.539062 12.453125 -7.894531 11.546875 -7.40625 C 10.648438 -6.925781 9.492188 -6.6875 8.078125 -6.6875 L 4.84375 -6.6875 L 4.84375 0 Z M 4.84375 -9.265625 L 7.875 -9.265625 C 8.976562 -9.265625 9.769531 -9.503906 10.25 -9.984375 C 10.738281 -10.472656 10.984375 -11.132812 10.984375 -11.96875 C 10.984375 -12.820312 10.738281 -13.492188 10.25 -13.984375 C 9.769531 -14.472656 8.976562 -14.71875 7.875 -14.71875 L 4.84375 -14.71875 Z M 4.84375 -9.265625 "/></g></g></g><g fill="#ffffff" fill-opacity="1"><g transform="translate(168.619723, 273.535128)"><g><path d="M 0.5625 0 L 6.890625 -17.28125 L 10.4375 -17.28125 L 16.765625 0 L 13.40625 0 L 12.015625 -4 L 5.28125 -4 L 3.875 0 Z M 6.140625 -6.46875 L 11.15625 -6.46875 L 8.640625 -13.65625 Z M 6.140625 -6.46875 "/></g></g></g><g fill="#ffffff" fill-opacity="1"><g transform="translate(189.747574, 273.535128)"><g><path d="M 7.578125 0.296875 C 6.304688 0.296875 5.1875 0.078125 4.21875 -0.359375 C 3.25 -0.796875 2.484375 -1.421875 1.921875 -2.234375 C 1.367188 -3.046875 1.082031 -4.035156 1.0625 -5.203125 L 4.390625 -5.203125 C 4.421875 -4.398438 4.710938 -3.722656 5.265625 -3.171875 C 5.816406 -2.617188 6.578125 -2.34375 7.546875 -2.34375 C 8.390625 -2.34375 9.054688 -2.546875 9.546875 -2.953125 C 10.046875 -3.359375 10.296875 -3.894531 10.296875 -4.5625 C 10.296875 -5.269531 10.078125 -5.820312 9.640625 -6.21875 C 9.203125 -6.613281 8.617188 -6.929688 7.890625 -7.171875 C 7.171875 -7.421875 6.398438 -7.6875 5.578125 -7.96875 C 4.242188 -8.4375 3.226562 -9.03125 2.53125 -9.75 C 1.832031 -10.476562 1.484375 -11.441406 1.484375 -12.640625 C 1.460938 -13.660156 1.703125 -14.535156 2.203125 -15.265625 C 2.710938 -16.003906 3.398438 -16.570312 4.265625 -16.96875 C 5.140625 -17.375 6.144531 -17.578125 7.28125 -17.578125 C 8.4375 -17.578125 9.453125 -17.367188 10.328125 -16.953125 C 11.210938 -16.546875 11.90625 -15.972656 12.40625 -15.234375 C 12.90625 -14.492188 13.171875 -13.613281 13.203125 -12.59375 L 9.828125 -12.59375 C 9.804688 -13.195312 9.566406 -13.734375 9.109375 -14.203125 C 8.660156 -14.671875 8.035156 -14.90625 7.234375 -14.90625 C 6.546875 -14.925781 5.96875 -14.757812 5.5 -14.40625 C 5.03125 -14.050781 4.796875 -13.535156 4.796875 -12.859375 C 4.796875 -12.285156 4.972656 -11.828125 5.328125 -11.484375 C 5.691406 -11.148438 6.1875 -10.867188 6.8125 -10.640625 C 7.4375 -10.410156 8.15625 -10.164062 8.96875 -9.90625 C 9.820312 -9.601562 10.601562 -9.253906 11.3125 -8.859375 C 12.019531 -8.460938 12.585938 -7.9375 13.015625 -7.28125 C 13.441406 -6.632812 13.65625 -5.804688 13.65625 -4.796875 C 13.65625 -3.890625 13.421875 -3.046875 12.953125 -2.265625 C 12.492188 -1.492188 11.8125 -0.875 10.90625 -0.40625 C 10 0.0625 8.890625 0.296875 7.578125 0.296875 Z M 7.578125 0.296875 "/></g></g></g><g fill="#ffffff" fill-opacity="1"><g transform="translate(208.308786, 273.535128)"><g><path d="M 7.578125 0.296875 C 6.304688 0.296875 5.1875 0.078125 4.21875 -0.359375 C 3.25 -0.796875 2.484375 -1.421875 1.921875 -2.234375 C 1.367188 -3.046875 1.082031 -4.035156 1.0625 -5.203125 L 4.390625 -5.203125 C 4.421875 -4.398438 4.710938 -3.722656 5.265625 -3.171875 C 5.816406 -2.617188 6.578125 -2.34375 7.546875 -2.34375 C 8.390625 -2.34375 9.054688 -2.546875 9.546875 -2.953125 C 10.046875 -3.359375 10.296875 -3.894531 10.296875 -4.5625 C 10.296875 -5.269531 10.078125 -5.820312 9.640625 -6.21875 C 9.203125 -6.613281 8.617188 -6.929688 7.890625 -7.171875 C 7.171875 -7.421875 6.398438 -7.6875 5.578125 -7.96875 C 4.242188 -8.4375 3.226562 -9.03125 2.53125 -9.75 C 1.832031 -10.476562 1.484375 -11.441406 1.484375 -12.640625 C 1.460938 -13.660156 1.703125 -14.535156 2.203125 -15.265625 C 2.710938 -16.003906 3.398438 -16.570312 4.265625 -16.96875 C 5.140625 -17.375 6.144531 -17.578125 7.28125 -17.578125 C 8.4375 -17.578125 9.453125 -17.367188 10.328125 -16.953125 C 11.210938 -16.546875 11.90625 -15.972656 12.40625 -15.234375 C 12.90625 -14.492188 13.171875 -13.613281 13.203125 -12.59375 L 9.828125 -12.59375 C 9.804688 -13.195312 9.566406 -13.734375 9.109375 -14.203125 C 8.660156 -14.671875 8.035156 -14.90625 7.234375 -14.90625 C 6.546875 -14.925781 5.96875 -14.757812 5.5 -14.40625 C 5.03125 -14.050781 4.796875 -13.535156 4.796875 -12.859375 C 4.796875 -12.285156 4.972656 -11.828125 5.328125 -11.484375 C 5.691406 -11.148438 6.1875 -10.867188 6.8125 -10.640625 C 7.4375 -10.410156 8.15625 -10.164062 8.96875 -9.90625 C 9.820312 -9.601562 10.601562 -9.253906 11.3125 -8.859375 C 12.019531 -8.460938 12.585938 -7.9375 13.015625 -7.28125 C 13.441406 -6.632812 13.65625 -5.804688 13.65625 -4.796875 C 13.65625 -3.890625 13.421875 -3.046875 12.953125 -2.265625 C 12.492188 -1.492188 11.8125 -0.875 10.90625 -0.40625 C 10 0.0625 8.890625 0.296875 7.578125 0.296875 Z M 7.578125 0.296875 "/></g></g></g><g fill="#ffffff" fill-opacity="1"><g transform="translate(226.870011, 273.535128)"><g><path d="M 0.5625 0 L 6.890625 -17.28125 L 10.4375 -17.28125 L 16.765625 0 L 13.40625 0 L 12.015625 -4 L 5.28125 -4 L 3.875 0 Z M 6.140625 -6.46875 L 11.15625 -6.46875 L 8.640625 -13.65625 Z M 6.140625 -6.46875 "/></g></g></g><g fill="#ffffff" fill-opacity="1"><g transform="translate(247.997855, 273.535128)"><g><path d="M 9.234375 0.296875 C 7.609375 0.296875 6.1875 -0.0703125 4.96875 -0.8125 C 3.75 -1.550781 2.800781 -2.582031 2.125 -3.90625 C 1.445312 -5.238281 1.109375 -6.785156 1.109375 -8.546875 C 1.109375 -10.316406 1.457031 -11.878906 2.15625 -13.234375 C 2.851562 -14.597656 3.847656 -15.660156 5.140625 -16.421875 C 6.429688 -17.191406 7.96875 -17.578125 9.75 -17.578125 C 11.769531 -17.578125 13.445312 -17.09375 14.78125 -16.125 C 16.113281 -15.15625 16.976562 -13.8125 17.375 -12.09375 L 13.84375 -12.09375 C 13.582031 -12.90625 13.101562 -13.535156 12.40625 -13.984375 C 11.71875 -14.441406 10.832031 -14.671875 9.75 -14.671875 C 8.019531 -14.671875 6.6875 -14.117188 5.75 -13.015625 C 4.8125 -11.921875 4.34375 -10.421875 4.34375 -8.515625 C 4.34375 -6.609375 4.804688 -5.128906 5.734375 -4.078125 C 6.671875 -3.035156 7.9375 -2.515625 9.53125 -2.515625 C 11.09375 -2.515625 12.269531 -2.9375 13.0625 -3.78125 C 13.863281 -4.632812 14.347656 -5.753906 14.515625 -7.140625 L 10.140625 -7.140625 L 10.140625 -9.5 L 17.703125 -9.5 L 17.703125 0 L 14.78125 0 L 14.546875 -2.265625 C 13.984375 -1.441406 13.28125 -0.804688 12.4375 -0.359375 C 11.601562 0.078125 10.535156 0.296875 9.234375 0.296875 Z M 9.234375 0.296875 "/></g></g></g><g fill="#ffffff" fill-opacity="1"><g transform="translate(270.902627, 273.535128)"><g><path d="M 1.671875 0 L 1.671875 -17.28125 L 12.96875 -17.28125 L 12.96875 -14.734375 L 4.84375 -14.734375 L 4.84375 -10 L 12.21875 -10 L 12.21875 -7.53125 L 4.84375 -7.53125 L 4.84375 -2.546875 L 12.96875 -2.546875 L 12.96875 0 Z M 1.671875 0 "/></g></g></g></svg>