<svg xmlns="http://www.w3.org/2000/svg" xmlns:xlink="http://www.w3.org/1999/xlink" width="500" zoomAndPan="magnify" viewBox="0 0 375 374.999991" height="500" preserveAspectRatio="xMidYMid meet" version="1.0"><rect x="-37.5" width="450" fill="#ffffff" y="-37.499999" height="449.999989" fill-opacity="1"/><rect x="-37.5" width="450" fill="#8c52ff" y="-37.499999" height="449.999989" fill-opacity="1"/><path fill="#ffffff" d="M 89.148438 292.195312 L 92.859375 295.867188 L 93.230469 296.238281 C 104.777344 308.203125 104.652344 327.464844 92.859375 339.265625 C 81.066406 351.0625 61.808594 351.1875 49.851562 339.636719 L 49.480469 339.265625 L 45.769531 335.59375 L 35.664062 325.445312 C 23.746094 313.523438 23.746094 294.011719 35.664062 282.046875 C 47.582031 270.125 67.128906 270.125 79.046875 282.046875 Z M 293.765625 124.304688 L 297.351562 120.714844 L 301.476562 116.589844 L 339.292969 78.761719 C 351.207031 66.839844 351.207031 47.328125 339.292969 35.363281 C 327.332031 23.441406 307.828125 23.441406 295.910156 35.363281 L 258.097656 73.191406 L 250.382812 80.90625 L 228.695312 102.605469 C 216.777344 114.527344 216.777344 134.039062 228.695312 146 L 250.382812 167.699219 L 254.261719 171.535156 L 296.199219 213.488281 C 308.117188 225.410156 327.621094 225.410156 339.578125 213.488281 C 351.496094 201.566406 351.496094 182.011719 339.578125 170.09375 L 297.640625 128.140625 Z M 37.398438 35.652344 L 37.398438 35.613281 C 49.3125 23.691406 68.859375 23.691406 80.777344 35.613281 L 339.003906 293.96875 C 350.960938 305.890625 350.960938 325.445312 339.003906 337.367188 C 327.085938 349.289062 307.582031 349.289062 295.621094 337.367188 L 37.398438 79.007812 C 25.480469 67.085938 25.480469 47.574219 37.398438 35.652344 Z M 37.027344 159.324219 C 48.941406 147.402344 68.449219 147.402344 80.40625 159.324219 L 109.808594 188.738281 L 173.4375 252.390625 L 215.375 294.339844 C 227.292969 306.261719 227.292969 325.816406 215.375 337.738281 C 203.417969 349.660156 183.910156 349.660156 171.992188 337.738281 L 130.054688 295.785156 L 66.425781 232.132812 L 37.027344 202.722656 C 25.109375 190.800781 25.109375 171.246094 37.027344 159.324219 Z M 37.027344 159.324219 " fill-opacity="1" fill-rule="evenodd"/></svg>