<svg xmlns="http://www.w3.org/2000/svg" xmlns:xlink="http://www.w3.org/1999/xlink" width="500" zoomAndPan="magnify" viewBox="0 0 375 74.999997" height="100" preserveAspectRatio="xMidYMid meet" version="1.0"><defs><g/><clipPath id="ad5f6a4e70"><path d="M 2 11.402344 L 54 11.402344 L 54 63.902344 L 2 63.902344 Z M 2 11.402344 " clip-rule="nonzero"/></clipPath></defs><g clip-path="url(#ad5f6a4e70)"><path fill="#ffffff" d="M 12.226562 54.453125 L 12.820312 55.039062 L 12.882812 55.101562 C 14.730469 57.015625 14.710938 60.101562 12.820312 61.992188 C 10.933594 63.882812 7.847656 63.902344 5.933594 62.050781 L 5.875 61.992188 L 5.277344 61.402344 L 3.660156 59.777344 C 1.75 57.867188 1.75 54.742188 3.660156 52.828125 C 5.570312 50.917969 8.699219 50.917969 10.609375 52.828125 Z M 45 27.558594 L 45.574219 26.984375 L 46.238281 26.324219 L 52.292969 20.261719 C 54.203125 18.351562 54.203125 15.226562 52.292969 13.3125 C 50.378906 11.402344 47.253906 11.402344 45.34375 13.3125 L 39.289062 19.371094 L 34.578125 24.082031 C 32.667969 25.992188 32.667969 29.117188 34.578125 31.035156 L 38.054688 34.507812 L 45.390625 41.84375 C 47.300781 43.753906 50.425781 43.753906 52.339844 41.84375 C 54.25 39.933594 54.25 36.800781 52.339844 34.894531 L 45.621094 28.171875 Z M 3.9375 13.359375 L 3.9375 13.351562 C 5.847656 11.441406 8.976562 11.441406 10.886719 13.351562 L 52.246094 54.738281 C 54.164062 56.644531 54.164062 59.777344 52.246094 61.6875 C 50.339844 63.597656 47.214844 63.597656 45.296875 61.6875 L 3.9375 20.300781 C 2.027344 18.394531 2.027344 15.265625 3.9375 13.359375 Z M 3.878906 33.167969 C 5.789062 31.257812 8.910156 31.257812 10.828125 33.167969 L 15.535156 37.878906 L 25.726562 48.074219 L 32.445312 54.796875 C 34.355469 56.707031 34.355469 59.835938 32.445312 61.746094 C 30.53125 63.65625 27.40625 63.65625 25.496094 61.746094 L 18.78125 55.027344 L 8.589844 44.832031 L 3.878906 40.121094 C 1.96875 38.210938 1.96875 35.078125 3.878906 33.167969 Z M 3.878906 33.167969 " fill-opacity="1" fill-rule="evenodd"/></g><g fill="#ffffff" fill-opacity="1"><g transform="translate(78.587178, 48.379509)"><g><path d="M 0.84375 0 L 10.28125 -25.8125 L 15.59375 -25.8125 L 25.03125 0 L 20.015625 0 L 17.953125 -5.96875 L 7.890625 -5.96875 L 5.796875 0 Z M 9.1875 -9.65625 L 16.671875 -9.65625 L 12.90625 -20.390625 Z M 9.1875 -9.65625 "/></g></g></g><g fill="#ffffff" fill-opacity="1"><g transform="translate(110.144943, 48.379509)"><g><path d="M 2.5 0 L 2.5 -25.8125 L 12.0625 -25.8125 C 14.125 -25.8125 15.832031 -25.46875 17.1875 -24.78125 C 18.539062 -24.09375 19.546875 -23.144531 20.203125 -21.9375 C 20.867188 -20.738281 21.203125 -19.390625 21.203125 -17.890625 C 21.203125 -16.460938 20.878906 -15.148438 20.234375 -13.953125 C 19.597656 -12.765625 18.601562 -11.804688 17.25 -11.078125 C 15.90625 -10.359375 14.175781 -10 12.0625 -10 L 7.234375 -10 L 7.234375 0 Z M 7.234375 -13.828125 L 11.765625 -13.828125 C 13.410156 -13.828125 14.59375 -14.1875 15.3125 -14.90625 C 16.039062 -15.632812 16.40625 -16.628906 16.40625 -17.890625 C 16.40625 -19.160156 16.039062 -20.160156 15.3125 -20.890625 C 14.59375 -21.617188 13.410156 -21.984375 11.765625 -21.984375 L 7.234375 -21.984375 Z M 7.234375 -13.828125 "/></g></g></g><g fill="#ffffff" fill-opacity="1"><g transform="translate(138.2375, 48.379509)"><g><path d="M 2.5 0 L 2.5 -25.8125 L 7.234375 -25.8125 L 7.234375 0 Z M 2.5 0 "/></g></g></g><g fill="#ffffff" fill-opacity="1"><g transform="translate(153.685718, 48.379509)"><g/></g></g><g fill="#ffffff" fill-opacity="1"><g transform="translate(168.175473, 48.379509)"><g><path d="M 2.5 0 L 2.5 -25.8125 L 12.0625 -25.8125 C 14.125 -25.8125 15.832031 -25.46875 17.1875 -24.78125 C 18.539062 -24.09375 19.546875 -23.144531 20.203125 -21.9375 C 20.867188 -20.738281 21.203125 -19.390625 21.203125 -17.890625 C 21.203125 -16.460938 20.878906 -15.148438 20.234375 -13.953125 C 19.597656 -12.765625 18.601562 -11.804688 17.25 -11.078125 C 15.90625 -10.359375 14.175781 -10 12.0625 -10 L 7.234375 -10 L 7.234375 0 Z M 7.234375 -13.828125 L 11.765625 -13.828125 C 13.410156 -13.828125 14.59375 -14.1875 15.3125 -14.90625 C 16.039062 -15.632812 16.40625 -16.628906 16.40625 -17.890625 C 16.40625 -19.160156 16.039062 -20.160156 15.3125 -20.890625 C 14.59375 -21.617188 13.410156 -21.984375 11.765625 -21.984375 L 7.234375 -21.984375 Z M 7.234375 -13.828125 "/></g></g></g><g fill="#ffffff" fill-opacity="1"><g transform="translate(196.268032, 48.379509)"><g><path d="M 0.84375 0 L 10.28125 -25.8125 L 15.59375 -25.8125 L 25.03125 0 L 20.015625 0 L 17.953125 -5.96875 L 7.890625 -5.96875 L 5.796875 0 Z M 9.1875 -9.65625 L 16.671875 -9.65625 L 12.90625 -20.390625 Z M 9.1875 -9.65625 "/></g></g></g><g fill="#ffffff" fill-opacity="1"><g transform="translate(227.82579, 48.379509)"><g><path d="M 11.328125 0.4375 C 9.429688 0.4375 7.753906 0.113281 6.296875 -0.53125 C 4.847656 -1.1875 3.707031 -2.117188 2.875 -3.328125 C 2.039062 -4.546875 1.609375 -6.03125 1.578125 -7.78125 L 6.5625 -7.78125 C 6.613281 -6.570312 7.050781 -5.554688 7.875 -4.734375 C 8.695312 -3.910156 9.832031 -3.5 11.28125 -3.5 C 12.539062 -3.5 13.535156 -3.800781 14.265625 -4.40625 C 15.003906 -5.007812 15.375 -5.816406 15.375 -6.828125 C 15.375 -7.878906 15.046875 -8.695312 14.390625 -9.28125 C 13.742188 -9.875 12.878906 -10.351562 11.796875 -10.71875 C 10.710938 -11.09375 9.554688 -11.488281 8.328125 -11.90625 C 6.335938 -12.59375 4.820312 -13.476562 3.78125 -14.5625 C 2.738281 -15.644531 2.21875 -17.082031 2.21875 -18.875 C 2.1875 -20.40625 2.546875 -21.71875 3.296875 -22.8125 C 4.046875 -23.90625 5.070312 -24.75 6.375 -25.34375 C 7.675781 -25.945312 9.175781 -26.25 10.875 -26.25 C 12.59375 -26.25 14.109375 -25.941406 15.421875 -25.328125 C 16.742188 -24.710938 17.78125 -23.851562 18.53125 -22.75 C 19.28125 -21.644531 19.679688 -20.332031 19.734375 -18.8125 L 14.671875 -18.8125 C 14.648438 -19.71875 14.300781 -20.519531 13.625 -21.21875 C 12.945312 -21.914062 12.003906 -22.265625 10.796875 -22.265625 C 9.765625 -22.296875 8.898438 -22.046875 8.203125 -21.515625 C 7.503906 -20.984375 7.15625 -20.21875 7.15625 -19.21875 C 7.15625 -18.351562 7.425781 -17.664062 7.96875 -17.15625 C 8.507812 -16.65625 9.242188 -16.234375 10.171875 -15.890625 C 11.109375 -15.546875 12.179688 -15.175781 13.390625 -14.78125 C 14.660156 -14.34375 15.820312 -13.828125 16.875 -13.234375 C 17.9375 -12.648438 18.785156 -11.867188 19.421875 -10.890625 C 20.066406 -9.921875 20.390625 -8.675781 20.390625 -7.15625 C 20.390625 -5.800781 20.046875 -4.546875 19.359375 -3.390625 C 18.671875 -2.234375 17.648438 -1.304688 16.296875 -0.609375 C 14.941406 0.0859375 13.285156 0.4375 11.328125 0.4375 Z M 11.328125 0.4375 "/></g></g></g><g fill="#ffffff" fill-opacity="1"><g transform="translate(255.549693, 48.379509)"><g><path d="M 11.328125 0.4375 C 9.429688 0.4375 7.753906 0.113281 6.296875 -0.53125 C 4.847656 -1.1875 3.707031 -2.117188 2.875 -3.328125 C 2.039062 -4.546875 1.609375 -6.03125 1.578125 -7.78125 L 6.5625 -7.78125 C 6.613281 -6.570312 7.050781 -5.554688 7.875 -4.734375 C 8.695312 -3.910156 9.832031 -3.5 11.28125 -3.5 C 12.539062 -3.5 13.535156 -3.800781 14.265625 -4.40625 C 15.003906 -5.007812 15.375 -5.816406 15.375 -6.828125 C 15.375 -7.878906 15.046875 -8.695312 14.390625 -9.28125 C 13.742188 -9.875 12.878906 -10.351562 11.796875 -10.71875 C 10.710938 -11.09375 9.554688 -11.488281 8.328125 -11.90625 C 6.335938 -12.59375 4.820312 -13.476562 3.78125 -14.5625 C 2.738281 -15.644531 2.21875 -17.082031 2.21875 -18.875 C 2.1875 -20.40625 2.546875 -21.71875 3.296875 -22.8125 C 4.046875 -23.90625 5.070312 -24.75 6.375 -25.34375 C 7.675781 -25.945312 9.175781 -26.25 10.875 -26.25 C 12.59375 -26.25 14.109375 -25.941406 15.421875 -25.328125 C 16.742188 -24.710938 17.78125 -23.851562 18.53125 -22.75 C 19.28125 -21.644531 19.679688 -20.332031 19.734375 -18.8125 L 14.671875 -18.8125 C 14.648438 -19.71875 14.300781 -20.519531 13.625 -21.21875 C 12.945312 -21.914062 12.003906 -22.265625 10.796875 -22.265625 C 9.765625 -22.296875 8.898438 -22.046875 8.203125 -21.515625 C 7.503906 -20.984375 7.15625 -20.21875 7.15625 -19.21875 C 7.15625 -18.351562 7.425781 -17.664062 7.96875 -17.15625 C 8.507812 -16.65625 9.242188 -16.234375 10.171875 -15.890625 C 11.109375 -15.546875 12.179688 -15.175781 13.390625 -14.78125 C 14.660156 -14.34375 15.820312 -13.828125 16.875 -13.234375 C 17.9375 -12.648438 18.785156 -11.867188 19.421875 -10.890625 C 20.066406 -9.921875 20.390625 -8.675781 20.390625 -7.15625 C 20.390625 -5.800781 20.046875 -4.546875 19.359375 -3.390625 C 18.671875 -2.234375 17.648438 -1.304688 16.296875 -0.609375 C 14.941406 0.0859375 13.285156 0.4375 11.328125 0.4375 Z M 11.328125 0.4375 "/></g></g></g><g fill="#ffffff" fill-opacity="1"><g transform="translate(283.273595, 48.379509)"><g><path d="M 0.84375 0 L 10.28125 -25.8125 L 15.59375 -25.8125 L 25.03125 0 L 20.015625 0 L 17.953125 -5.96875 L 7.890625 -5.96875 L 5.796875 0 Z M 9.1875 -9.65625 L 16.671875 -9.65625 L 12.90625 -20.390625 Z M 9.1875 -9.65625 "/></g></g></g><g fill="#ffffff" fill-opacity="1"><g transform="translate(314.831353, 48.379509)"><g><path d="M 13.796875 0.4375 C 11.359375 0.4375 9.226562 -0.113281 7.40625 -1.21875 C 5.59375 -2.320312 4.179688 -3.863281 3.171875 -5.84375 C 2.160156 -7.820312 1.65625 -10.128906 1.65625 -12.765625 C 1.65625 -15.410156 2.175781 -17.75 3.21875 -19.78125 C 4.269531 -21.8125 5.757812 -23.394531 7.6875 -24.53125 C 9.613281 -25.675781 11.90625 -26.25 14.5625 -26.25 C 17.582031 -26.25 20.085938 -25.523438 22.078125 -24.078125 C 24.078125 -22.628906 25.367188 -20.625 25.953125 -18.0625 L 20.6875 -18.0625 C 20.289062 -19.269531 19.578125 -20.210938 18.546875 -20.890625 C 17.515625 -21.566406 16.1875 -21.90625 14.5625 -21.90625 C 11.976562 -21.90625 9.984375 -21.085938 8.578125 -19.453125 C 7.179688 -17.816406 6.484375 -15.570312 6.484375 -12.71875 C 6.484375 -9.863281 7.175781 -7.65625 8.5625 -6.09375 C 9.957031 -4.539062 11.847656 -3.765625 14.234375 -3.765625 C 16.566406 -3.765625 18.328125 -4.394531 19.515625 -5.65625 C 20.710938 -6.925781 21.4375 -8.59375 21.6875 -10.65625 L 15.15625 -10.65625 L 15.15625 -14.203125 L 26.4375 -14.203125 L 26.4375 0 L 22.09375 0 L 21.71875 -3.390625 C 20.882812 -2.160156 19.835938 -1.210938 18.578125 -0.546875 C 17.328125 0.109375 15.734375 0.4375 13.796875 0.4375 Z M 13.796875 0.4375 "/></g></g></g><g fill="#ffffff" fill-opacity="1"><g transform="translate(349.04333, 48.379509)"><g><path d="M 2.5 0 L 2.5 -25.8125 L 19.359375 -25.8125 L 19.359375 -22.015625 L 7.234375 -22.015625 L 7.234375 -14.9375 L 18.25 -14.9375 L 18.25 -11.25 L 7.234375 -11.25 L 7.234375 -3.796875 L 19.359375 -3.796875 L 19.359375 0 Z M 2.5 0 "/></g></g></g></svg>