<svg xmlns="http://www.w3.org/2000/svg" xmlns:xlink="http://www.w3.org/1999/xlink" width="500" zoomAndPan="magnify" viewBox="0 0 375 374.999991" height="500" preserveAspectRatio="xMidYMid meet" version="1.0"><defs><g/><clipPath id="9ffc3e9d52"><path d="M 118.128906 99.101562 L 256.878906 99.101562 L 256.878906 237.851562 L 118.128906 237.851562 Z M 118.128906 99.101562 " clip-rule="nonzero"/></clipPath></defs><rect x="-37.5" width="450" fill="#ffffff" y="-37.499999" height="449.999989" fill-opacity="1"/><rect x="-37.5" width="450" fill="#ffffff" y="-37.499999" height="449.999989" fill-opacity="1"/><rect x="-37.5" width="450" fill="#8c52ff" y="-37.499999" height="449.999989" fill-opacity="1"/><g clip-path="url(#9ffc3e9d52)"><path fill="#ffffff" d="M 253.949219 191.886719 C 252.496094 191.886719 251.320312 190.707031 251.320312 189.25 L 251.320312 108.367188 L 206.675781 153.125 C 205.644531 154.15625 203.980469 154.15625 202.953125 153.125 C 201.929688 152.09375 201.929688 150.425781 202.953125 149.394531 L 252.089844 100.136719 C 252.839844 99.382812 253.972656 99.15625 254.957031 99.566406 C 255.9375 99.972656 256.578125 100.933594 256.578125 102 L 256.578125 189.25 C 256.578125 190.707031 255.402344 191.886719 253.949219 191.886719 Z M 121.074219 237.851562 C 119.621094 237.851562 118.441406 236.671875 118.441406 235.214844 L 118.441406 143.289062 C 118.441406 142.222656 119.082031 141.257812 120.066406 140.851562 C 121.050781 140.441406 122.179688 140.667969 122.933594 141.421875 L 168.78125 187.386719 C 169.808594 188.417969 169.808594 190.085938 168.78125 191.117188 C 167.753906 192.144531 166.085938 192.144531 165.058594 191.117188 L 123.703125 149.652344 L 123.703125 235.214844 C 123.703125 236.671875 122.523438 237.851562 121.074219 237.851562 Z M 253.949219 237.851562 C 253.277344 237.851562 252.601562 237.59375 252.089844 237.078125 L 119.214844 103.867188 C 118.1875 102.835938 118.1875 101.167969 119.214844 100.136719 C 120.242188 99.109375 121.90625 99.109375 122.933594 100.136719 L 255.808594 233.351562 C 256.835938 234.378906 256.835938 236.050781 255.808594 237.078125 C 255.292969 237.59375 254.621094 237.851562 253.949219 237.851562 " fill-opacity="1" fill-rule="nonzero"/></g><g fill="#fffbfa" fill-opacity="1"><g transform="translate(153.187406, 266.300519)"><g><path d="M 8.257812 -14.996094 C 7.957031 -15.613281 7.480469 -15.613281 7.175781 -14.996094 L 0.300781 -0.476562 C 0.175781 -0.195312 0.300781 0 0.59375 0 L 4.121094 0 C 4.335938 0 4.5 -0.117188 4.578125 -0.320312 L 5.066406 -1.582031 L 10.367188 -1.582031 L 10.855469 -0.320312 C 10.933594 -0.117188 11.101562 0 11.316406 0 L 14.839844 0 C 15.132812 0 15.261719 -0.195312 15.132812 -0.476562 Z M 7.722656 -8.347656 L 9.195312 -4.578125 L 6.238281 -4.578125 Z M 7.722656 -8.347656 "/></g></g></g><g fill="#fffbfa" fill-opacity="1"><g transform="translate(184.640489, 266.300519)"><g><path d="M 5.097656 0 C 5.359375 0 5.496094 -0.136719 5.496094 -0.398438 L 5.496094 -5.117188 L 8.914062 -5.117188 C 11.753906 -5.117188 13.492188 -7.058594 13.492188 -10.171875 C 13.492188 -12.742188 12.339844 -14.996094 8.113281 -14.996094 L 1.882812 -14.996094 C 1.621094 -14.996094 1.484375 -14.859375 1.484375 -14.597656 L 1.484375 -0.398438 C 1.484375 -0.136719 1.621094 0 1.882812 0 Z M 5.496094 -11.597656 L 7.421875 -11.597656 C 8.21875 -11.597656 9.5 -11.597656 9.5 -10.132812 C 9.5 -8.511719 7.976562 -8.511719 7.421875 -8.511719 L 5.496094 -8.511719 Z M 5.496094 -11.597656 "/></g></g></g><g fill="#fffbfa" fill-opacity="1"><g transform="translate(214.853822, 266.300519)"><g><path d="M 5.078125 0 C 5.339844 0 5.476562 -0.136719 5.476562 -0.398438 L 5.476562 -14.597656 C 5.476562 -14.859375 5.339844 -14.996094 5.078125 -14.996094 L 1.882812 -14.996094 C 1.621094 -14.996094 1.484375 -14.859375 1.484375 -14.597656 L 1.484375 -0.398438 C 1.484375 -0.136719 1.621094 0 1.882812 0 Z M 5.078125 0 "/></g></g></g><g fill="#fffbfa" fill-opacity="1"><g transform="translate(133.788892, 284.050529)"><g><path d="M 1.695312 0 L 2.609375 0 L 2.609375 -3.601562 L 5.023438 -3.601562 C 7.453125 -3.601562 8.894531 -4.875 8.894531 -7.050781 C 8.894531 -9.226562 7.453125 -10.5 5.023438 -10.5 L 1.695312 -10.5 Z M 2.609375 -4.441406 L 2.609375 -9.628906 L 5.011719 -9.628906 C 6.976562 -9.628906 7.980469 -8.746094 7.980469 -7.035156 C 7.980469 -5.324219 6.976562 -4.441406 5.011719 -4.441406 Z M 2.609375 -4.441406 "/></g></g></g><g fill="#fffbfa" fill-opacity="1"><g transform="translate(149.388882, 284.050529)"><g><path d="M 0.328125 0 L 1.304688 0 L 2.386719 -2.640625 L 7.84375 -2.640625 L 8.941406 0 L 9.898438 0 L 5.550781 -10.5 L 4.679688 -10.5 Z M 2.746094 -3.480469 L 5.113281 -9.253906 L 7.5 -3.480469 Z M 2.746094 -3.480469 "/></g></g></g><g fill="#fffbfa" fill-opacity="1"><g transform="translate(165.633872, 284.050529)"><g><path d="M 5.070312 0.195312 C 7.351562 0.195312 8.789062 -0.914062 8.789062 -2.671875 C 8.789062 -4.171875 7.769531 -5.101562 5.113281 -5.714844 C 2.910156 -6.210938 2.128906 -6.855469 2.128906 -7.90625 C 2.128906 -9.058594 3.121094 -9.824219 4.816406 -9.824219 C 6.570312 -9.824219 7.636719 -8.984375 7.710938 -7.5 L 8.609375 -7.5 C 8.535156 -9.523438 7.125 -10.695312 4.816406 -10.695312 C 2.578125 -10.695312 1.214844 -9.585938 1.214844 -7.90625 C 1.214844 -6.328125 2.308594 -5.460938 4.890625 -4.859375 C 7.003906 -4.394531 7.859375 -3.75 7.859375 -2.65625 C 7.859375 -1.441406 6.796875 -0.675781 5.070312 -0.675781 C 3.253906 -0.675781 2.039062 -1.574219 1.949219 -3.121094 L 1.050781 -3.121094 C 1.125 -1.09375 2.671875 0.195312 5.070312 0.195312 Z M 5.070312 0.195312 "/></g></g></g><g fill="#fffbfa" fill-opacity="1"><g transform="translate(181.488859, 284.050529)"><g><path d="M 5.070312 0.195312 C 7.351562 0.195312 8.789062 -0.914062 8.789062 -2.671875 C 8.789062 -4.171875 7.769531 -5.101562 5.113281 -5.714844 C 2.910156 -6.210938 2.128906 -6.855469 2.128906 -7.90625 C 2.128906 -9.058594 3.121094 -9.824219 4.816406 -9.824219 C 6.570312 -9.824219 7.636719 -8.984375 7.710938 -7.5 L 8.609375 -7.5 C 8.535156 -9.523438 7.125 -10.695312 4.816406 -10.695312 C 2.578125 -10.695312 1.214844 -9.585938 1.214844 -7.90625 C 1.214844 -6.328125 2.308594 -5.460938 4.890625 -4.859375 C 7.003906 -4.394531 7.859375 -3.75 7.859375 -2.65625 C 7.859375 -1.441406 6.796875 -0.675781 5.070312 -0.675781 C 3.253906 -0.675781 2.039062 -1.574219 1.949219 -3.121094 L 1.050781 -3.121094 C 1.125 -1.09375 2.671875 0.195312 5.070312 0.195312 Z M 5.070312 0.195312 "/></g></g></g><g fill="#fffbfa" fill-opacity="1"><g transform="translate(197.343846, 284.050529)"><g><path d="M 0.328125 0 L 1.304688 0 L 2.386719 -2.640625 L 7.84375 -2.640625 L 8.941406 0 L 9.898438 0 L 5.550781 -10.5 L 4.679688 -10.5 Z M 2.746094 -3.480469 L 5.113281 -9.253906 L 7.5 -3.480469 Z M 2.746094 -3.480469 "/></g></g></g><g fill="#fffbfa" fill-opacity="1"><g transform="translate(213.588836, 284.050529)"><g><path d="M 6.269531 0.195312 C 9.464844 0.195312 11.59375 -2.191406 11.566406 -5.519531 L 5.941406 -5.519531 L 5.941406 -4.648438 L 10.589844 -4.648438 C 10.394531 -2.355469 8.730469 -0.71875 6.285156 -0.71875 C 3.691406 -0.71875 1.890625 -2.566406 1.890625 -5.25 C 1.890625 -7.933594 3.675781 -9.78125 6.285156 -9.78125 C 8.160156 -9.78125 9.601562 -8.820312 10.261719 -7.261719 L 11.25 -7.261719 C 10.574219 -9.300781 8.671875 -10.695312 6.238281 -10.695312 C 3.164062 -10.695312 0.960938 -8.429688 0.960938 -5.25 C 0.960938 -2.070312 3.164062 0.195312 6.269531 0.195312 Z M 6.269531 0.195312 "/></g></g></g><g fill="#fffbfa" fill-opacity="1"><g transform="translate(232.068823, 284.050529)"><g><path d="M 1.695312 0 L 8.039062 0 L 8.039062 -0.855469 L 2.609375 -0.855469 L 2.609375 -4.933594 L 7.484375 -4.933594 L 7.484375 -5.773438 L 2.609375 -5.773438 L 2.609375 -9.644531 L 7.875 -9.644531 L 7.875 -10.5 L 1.695312 -10.5 Z M 1.695312 0 "/></g></g></g></svg>